<?xml version="1.0" encoding="utf-8"?>
<!-- Generator: Adobe Illustrator 21.1.0, SVG Export Plug-In . SVG Version: 6.00 Build 0)  -->
<svg version="1.1" id="Capa_1" xmlns="http://www.w3.org/2000/svg" xmlns:xlink="http://www.w3.org/1999/xlink" x="0px" y="0px"
	 viewBox="0 0 453 492" style="enable-background:new 0 0 453 492;" xml:space="preserve">
<style type="text/css">
	.st0{fill:#F05123;}
</style>
<title>abarrotes</title>
<g id="Capa_2">
	<g id="Capa_1-2">
		<path class="st0" d="M213.4,162.9l-47.5-94.1V47.1h2.6c4.3,0,7.9-3.5,7.9-7.8v0V7.8c0-4.3-3.5-7.8-7.8-7.8H55.2
			c-4.3,0-7.8,3.5-7.8,7.8v31.4c0,4.3,3.5,7.8,7.8,7.8h2.6v21.7l-47.5,94.1C4.5,174.3,0,193.3,0,206.1v257.1
			C0,479.1,12.9,492,28.8,492h166.1c15.9,0,28.8-12.9,28.8-28.8V206.1C223.7,193.3,219.2,174.3,213.4,162.9L213.4,162.9z M63,15.7
			h97.6v15.7H63V15.7z M72.7,74.2c0.6-1.1,0.8-2.3,0.8-3.5V47.1h76.7v23.6c0,1.2,0.3,2.4,0.8,3.5l29.9,59.2
			c-5.7,1.8-9.6,4.8-13.1,7.4c-4.7,3.5-8,6-15.5,6s-10.9-2.5-15.5-6c-5.4-4.1-12.2-9.1-24.9-9.1s-19.5,5.1-24.9,9.1
			c-4.7,3.5-8,6-15.5,6s-10.9-2.5-15.5-6c-3.4-2.6-7.4-5.5-13.1-7.4L72.7,74.2z M208,463.2c0,7.2-5.9,13.1-13.1,13.1H28.8
			c-7.2,0-13.1-5.9-13.1-13.1V206.1c0-10.3,3.9-26.9,8.6-36.1l11.2-22.3c4.5,0.8,7.3,2.9,10.9,5.6c5.4,4.1,12.2,9.1,24.9,9.1
			s19.5-5.1,24.9-9.1c4.7-3.5,8-6,15.5-6s10.9,2.5,15.5,6c5.4,4.1,12.2,9.1,24.9,9.1s19.5-5.1,24.9-9.1c3.6-2.7,6.4-4.8,10.9-5.6
			l11.3,22.3c4.7,9.2,8.6,25.8,8.6,36.1L208,463.2L208,463.2z"/>
		<path class="st0" d="M39.3,413.5c-4.3,0-7.9,3.5-7.9,7.9l0,0v31.4c0,4.3,3.5,7.9,7.8,7.9c4.3,0,7.9-3.5,7.9-7.8c0,0,0,0,0,0v-31.4
			C47.1,417,43.6,413.5,39.3,413.5L39.3,413.5z"/>
		<path class="st0" d="M48.9,173.6c-3.9-2-8.6-0.4-10.5,3.5c0,0,0,0,0,0c-3.5,6.9-6.9,21.3-6.9,29v183.9c0,4.3,3.5,7.9,7.8,7.9
			s7.9-3.5,7.9-7.9V206.1c0-5.3,2.8-17.2,5.2-21.9C54.3,180.3,52.7,175.6,48.9,173.6C48.9,173.6,48.9,173.6,48.9,173.6z"/>
		<path class="st0" d="M97,78.5h29.6c4.3,0,7.8-3.5,7.8-7.8s-3.5-7.9-7.8-7.9l0,0H97c-4.3,0-7.8,3.5-7.8,7.9S92.7,78.5,97,78.5z"/>
		<path class="st0" d="M381.9,275.6c-2.6-0.6-5.2,1-5.8,3.6s1,5.2,3.6,5.8l0,0c0.3,0.1,34.4,8.3,39.7,34.8c0.4,2.2,2.4,3.9,4.7,3.9
			c0.3,0,0.7,0,1-0.1c2.6-0.5,4.3-3.1,3.8-5.7C422.3,285.4,383.6,276,381.9,275.6z"/>
		<path class="st0" d="M426.8,275.6c-7-3.3-10.9-5.4-11.8-9.6c0.4,0,0.7-0.1,1-0.2c0.5-0.1,1-0.1,1.5-0.3c0.5-0.1,0.9-0.3,1.4-0.4
			c0.5-0.2,0.9-0.3,1.4-0.5c0.4-0.2,0.9-0.5,1.3-0.7c0.4-0.3,0.8-0.5,1.2-0.8c0.4-0.3,0.8-0.6,1.1-1c0.3-0.3,0.7-0.6,1-0.9
			c0.4-0.4,0.7-0.8,1-1.3c0.3-0.4,0.5-0.7,0.8-1.1c0.3-0.5,0.5-1,0.8-1.5c0.2-0.4,0.4-0.7,0.5-1.1c0.2-0.6,0.4-1.3,0.5-1.9
			c0.1-0.4,0.2-0.7,0.3-1.1c0.2-1.1,0.3-2.2,0.3-3.3v-11.3c0-9.2-6.5-16.1-15.1-16.1H290c-8.6,0-15.1,6.9-15.1,16.1v11.3
			c0.1,9.2,6.5,16.1,15.1,16.1h0.6c-1,4-4.6,6-12.2,9.6c-11.4,5.3-27,12.4-27,38.9v125.4c0,28.8,23.4,52.1,52.2,52.2h97.4
			c28.8,0,52.1-23.4,52.1-52.2V314.5C453,288.1,437.9,280.9,426.8,275.6z M419.3,238.6v11.3c0,0.4,0,0.8-0.1,1.2
			c-0.4,2.8-2.1,5.3-5.4,5.3h-9v-24.3h9C417.7,232.1,419.4,235.4,419.3,238.6L419.3,238.6z M308.7,232.1h9.6v24.3h-9.6V232.1z
			 M327.9,232.1h9.6v24.3h-9.6V232.1z M347.2,232.1h9.6v24.3h-9.6V232.1z M366.4,232.1h9.6v24.3h-9.6L366.4,232.1z M385.7,232.1h9.6
			v24.3h-9.6V232.1z M284.6,238.6c0-3.2,1.7-6.5,5.4-6.5h9v24.3h-9c-3.3,0-5-2.5-5.4-5.3c-0.1-0.4-0.1-0.8-0.1-1.2L284.6,238.6
			L284.6,238.6z M443.4,439.8c0,23.5-19.1,42.5-42.5,42.5h-97.3c-23.5,0-42.5-19.1-42.5-42.5v-74.6c0-25.2,20.5-45.6,45.7-45.5
			c1.7,0,3.4,0.1,5.1,0.3c10.6,1.2,20.9,3.6,31,7l0,0c1.5,0.5,3,1.2,4.5,1.8c6.6,3,24.6,9.8,49,9.1c25.2-0.9,46.3,18.8,47.2,44
			c0,0.5,0,1,0,1.5L443.4,439.8L443.4,439.8z M436.3,343.9c-10.8-10.4-25.4-16-40.4-15.6c-15.3,0.6-30.6-2.2-44.7-8.3
			c-1.7-0.8-3.5-1.5-5.3-2.2c-10.7-3.7-21.8-6.2-33-7.5c-20.4-2.5-40.5,6.7-52,23.8v-19.8c0-20.3,10.4-25,21.4-30.1
			c7.9-3.6,16.6-7.8,17.9-18.3h105.1c1.2,10.5,9.7,14.6,17.3,18.3c10.7,5.1,20.7,9.9,20.7,30.1v37.9
			C441.3,349.3,439,346.5,436.3,343.9L436.3,343.9z"/>
	</g>
</g>
</svg>
