<?xml version="1.0" encoding="utf-8"?>
<!-- Generator: Adobe Illustrator 21.1.0, SVG Export Plug-In . SVG Version: 6.00 Build 0)  -->
<svg version="1.1" id="Capa_1" xmlns="http://www.w3.org/2000/svg" xmlns:xlink="http://www.w3.org/1999/xlink" x="0px" y="0px"
	 viewBox="0 0 545.6 404" style="enable-background:new 0 0 545.6 404;" xml:space="preserve">
<style type="text/css">
	.st0{fill:#F05123;}
</style>
<title>alimentacion</title>
<g id="Capa_2">
	<g id="Capa_1-2">
		<g id="SVGCleanerId_0">
			<path class="st0" d="M130.1,180c-21.3,0-38.6,16.8-38.6,37.4s17.3,37.4,38.6,37.4s38.6-16.8,38.6-37.4S151.4,180,130.1,180z
				 M130.1,240.6c-13.5,0-24.4-10.4-24.4-23.2s11-23.2,24.4-23.2s24.4,10.4,24.4,23.2S143.6,240.6,130.1,240.6L130.1,240.6z"/>
		</g>
		<path class="st0" d="M208.9,57.2c-19.3,0-34.5,11.7-34.5,26.6s15.1,26.6,34.5,26.6s34.5-11.7,34.5-26.6S228.3,57.2,208.9,57.2z
			 M208.9,96.2c-10.8,0-20.3-5.8-20.3-12.4c0-5.9,8.3-12.4,20.3-12.4s20.3,6.5,20.3,12.4C229.2,90.4,219.8,96.2,208.9,96.2
			L208.9,96.2z"/>
		<path class="st0" d="M130.1,180c-21.3,0-38.6,16.8-38.6,37.4s17.3,37.4,38.6,37.4s38.6-16.8,38.6-37.4S151.4,180,130.1,180z
			 M130.1,240.6c-13.5,0-24.4-10.4-24.4-23.2s11-23.2,24.4-23.2s24.4,10.4,24.4,23.2S143.6,240.6,130.1,240.6L130.1,240.6z"/>
		<path class="st0" d="M208.9,57.2c-19.3,0-34.5,11.7-34.5,26.6s15.1,26.6,34.5,26.6s34.5-11.7,34.5-26.6S228.3,57.2,208.9,57.2z
			 M208.9,96.2c-10.8,0-20.3-5.8-20.3-12.4c0-5.9,8.3-12.4,20.3-12.4s20.3,6.5,20.3,12.4C229.2,90.4,219.7,96.2,208.9,96.2
			L208.9,96.2z"/>
		<path class="st0" d="M261.7,287.7c-111.3,18.8-232.5,39.2-247.5,41.8v-45.6c14.3-0.2,25.9-12.2,25.9-27s-11.6-26.9-25.9-27v-36.5
			c0-5.1,1.3-5.7,5.1-7l217.4-36.5v0.3c0,19.7,16.4,35.7,36.6,35.7s36.5-16,36.6-35.7c0.1-4.2-0.9-8.3-2.7-12L422.7,119l10.8-1.7
			c0.2,1,0.4,2.1,0.5,3.2c4.8-0.7,9.5-1.2,14.1-1.5c-0.5-4.2-1.6-8.4-3.1-12.3c-1.9-4.8-4.7-9.1-8.2-12.9
			c-35.8-38.1-81.1-66-131.3-80.8C277.1,4.4,247.7,0,218,0c-6,0-11.3,1.8-15.1,5c-1.8,1.5-91.4,77.6-109.1,92.6
			c-2.1,1.7-3.8,3.9-4.9,6.4c-1.3,3.6,0.4,7.5,3.9,9c5.2,2.2,7.9,5.7,7.9,8.5c0,3-2.8,5.9-8.2,8.1c-4.2,1.6-8.6,2.4-13.1,2.4
			c-3.9,0-7.8-0.6-11.5-1.8c-1.8-0.7-3.7-1.1-5.7-1.2c-3.7,0.1-7.2,1.6-10,4.1c-0.6,0.5-2.3,1.9-4.7,3.9
			c-18.2,14.9-31,25.6-34.3,29.4c-2.7,3-5.1,6.3-7.2,9.8c-1.6,2.1-6.2,9.4-6.2,21.1v36.6c0,7.4,4.9,10.7,9.8,10.7
			c0.8,0,1.6-0.1,2.3-0.2h0.3c0.5-0.1,1-0.1,1.5-0.1c6.6,0,12,5.8,12,12.8c0,7.1-5.4,12.8-12,12.8c-0.4,0-0.9,0-1.3-0.1
			c-0.5-0.1-0.9-0.1-1.4-0.1c-5.5,0-11.2,4-11.2,10.8v50.8c-0.2,6.8,5.2,12.5,12,12.7c0.2,0,0.4,0,0.6,0c0.9,0,1.7-0.1,2.6-0.2
			c4.4-0.8,133.1-22.5,245.6-41.5C260.8,297.4,261.2,292.6,261.7,287.7z M273.3,171.7c-12.3,0-22.4-9.7-22.4-21.5
			c-0.1-2.3,0.2-4.6,0.9-6.8c1.4-4.2,4.4-8.4,17.9-10.1c1.2-0.1,2.4-0.2,3.6-0.2c6-0.1,11.8,1.8,16.5,5.5l0,0
			c3.6,2.8,5.8,7,5.9,11.6C295.6,162.1,285.6,171.7,273.3,171.7L273.3,171.7z M56.6,147.8c2.5-2,4.3-3.5,4.9-4
			c0.6-0.3,1.3-0.3,1.9-0.2c5.2,1.7,10.6,2.5,16,2.5c6.3,0,12.5-1.1,18.4-3.4c11.1-4.4,17.8-12.5,17.8-21.6c0-5.6-2.6-10.8-7.3-15
			c-0.4-0.4-1.2-1.3-0.1-2.2c24.5-20.9,102-86.5,103.9-88.2c1.2-1,3.4-1.6,5.8-1.6c46.3,0,135,11.6,208.5,89.3l0.4,0.4l-6.5,1.1
			l-124.3,20.5c-6.8-4.4-14.7-6.7-22.8-6.7c-1.8,0-3.6,0.1-5.4,0.3c-9.4,1.2-22,4.1-27.9,15.7L30.4,169.7
			C38.3,162.8,51.4,152.1,56.6,147.8z"/>
		<path class="st0" d="M381.2,404c-28.6,0-53.6-9.7-72.1-28.1c-2-2-3.9-4.2-5.6-6.3l-0.2-0.3l-1.4-1.9
			C265.5,322,277,248.4,328.7,196.4c13.2-13.1,28.1-24.3,44.5-33.3l-0.5-1l8.1-4c25.2-12.5,52.6-19.4,77-19.4
			c26.4,0,48.5,8.1,63.9,23.4c21.3,21.2,28.7,54.5,20.9,93.9c-7.2,36.6-26.7,73-53.4,99.9C458.8,386.5,419.5,404,381.2,404z
			 M317.5,358.2c1.4,1.7,2.9,3.5,4.4,4.9c15.1,15,35.6,22.9,59.4,22.9c33.5,0,68.2-15.6,95.2-42.8c24.3-24.4,41.9-57.4,48.5-90.6
			s0.9-60.9-16-77.7c-12-11.9-29.7-18.2-51.2-18.2c-19.1,0-40.4,4.9-60.8,13.8l0.2,0.5l-9.5,4.9c-17,8.6-32.6,19.8-46.1,33.3
			c-45.3,45.6-56.3,108.9-25.5,147.2L317.5,358.2z"/>
	</g>
</g>
</svg>
