<svg xmlns="http://www.w3.org/2000/svg" viewBox="0 0 612 545.53"><defs><style>.cls-1{fill:#fff;}</style></defs><title>card</title><g id="Capa_2" data-name="Capa 2"><g id="Capa_1-2" data-name="Capa 1"><path class="cls-1" d="M588.63,80,213.81.64a29.56,29.56,0,0,0-34.93,22.73l-7.12,45.76,432.48,91.52,7.12-45.76A29.56,29.56,0,0,0,588.63,80Z"/><path class="cls-1" d="M431,170.36a29.84,29.84,0,0,0-36.61-20.71L323.24,169.4,155.5,133.9l-18.45,87.17-115.26,32A29.83,29.83,0,0,0,1.08,289.66L66,523.74a29.84,29.84,0,0,0,36.62,20.71L475.26,441A29.84,29.84,0,0,0,496,404.43l-11.15-40.18,41.79,8.83a29.55,29.55,0,0,0,34.93-22.73L588,225.42,437.45,193.56Zm43,119,9.21-43.55a12.17,12.17,0,0,1,14.37-9.35l43.55,9.22A12.16,12.16,0,0,1,550.53,260l-9.22,43.55a12.16,12.16,0,0,1-14.37,9.35L483.4,303.7A12.16,12.16,0,0,1,474,289.33ZM28.27,276.41l103.11-28.61,243.3-67.52L400.87,173a5.45,5.45,0,0,1,1.42-.19,5.62,5.62,0,0,1,5.35,4l3.07,11.07,9.63,34.7L37.15,329l-12.7-45.77A5.58,5.58,0,0,1,28.27,276.41ZM472.6,410.91a5.59,5.59,0,0,1-3.83,6.77L96.17,521.08a5.42,5.42,0,0,1-1.42.2,5.63,5.63,0,0,1-5.35-4L51.52,380.72,434.71,274.38l23.37,84.21Z"/><path class="cls-1" d="M156.38,420.25a12.16,12.16,0,0,0-14.93-8.44L97.94,423.89a12.16,12.16,0,0,0-8.44,14.93l12.07,43.51a12.16,12.16,0,0,0,14.93,8.44L160,478.69a12.16,12.16,0,0,0,8.44-14.93Z"/></g></g></svg>