<?xml version="1.0" encoding="utf-8"?>
<!-- Generator: Adobe Illustrator 20.0.0, SVG Export Plug-In . SVG Version: 6.00 Build 0)  -->
<svg version="1.1" id="Capa_1" xmlns="http://www.w3.org/2000/svg" xmlns:xlink="http://www.w3.org/1999/xlink" x="0px" y="0px"
	 viewBox="0 0 512 512" style="enable-background:new 0 0 512 512;" xml:space="preserve">
<style type="text/css">
	.st0{fill:#F05123;}
</style>
<g>
	<g>
		<g>
			<path class="st0" d="M448,287.8c-4.4,0-8,3.6-8,8v56.1h-12.7c-3.1-27.7-28.2-47.7-55.9-44.6c-23.4,2.6-41.9,21.1-44.6,44.6H160
				v-232h280V145c0,4.4,3.6,8,8,8s8-3.6,8-8v-33.2c0-4.4-3.6-8-8-8H152c-4.4,0-8,3.6-8,8v8H52.4c-20.1,0-36.4,16.3-36.4,36.4v11.6
				c0,4.4,3.6,8,8,8h9.3l-6.1,73.3c-16,4.2-27.1,18.6-27.2,35.1v67.6c0,4.4,3.6,8,8,8h16.2c2.2,28.6,27.2,50,55.8,47.8
				c25.6-2,45.9-22.3,47.8-47.8c0.1,0,0.1,0,0.2,0h16c0,4.4,3.6,8,8,8h175.5c5.7,27.3,32.5,44.9,59.8,39.2
				c19.7-4.1,35.1-19.5,39.2-39.2H448c4.4,0,8-3.6,8-8v-64.1C456,291.4,452.4,287.8,448,287.8z M76,391.8c-19.9,0-36-16.1-36-36
				s16.1-36,36-36s36,16.1,36,36C112,375.7,95.9,391.8,76,391.8z M144,343.8h-16c-0.5,0-0.9,0.1-1.4,0.3c-6.4-28-34.3-45.4-62.3-39
				c-19.3,4.4-34.4,19.4-38.9,38.7H16v-59.6c0-11.3,9.1-20.4,20.4-20.4H144V343.8z M144,247.8H43.4l6-72H144V247.8z M144,159.8H32
				v-3.6c0-11.3,9.1-20.4,20.4-20.4H144V159.8z M411.6,359.5c-1,18.3-16.2,32.6-34.5,32.6h0c-16.8,0-31.1-12.1-34-28.7
				c1.4-2.5,1.2-5.5-0.4-7.8c1.1-19,17.4-33.6,36.4-32.5C398.1,324.2,412.6,340.5,411.6,359.5z"/>
			<path class="st0" d="M440,167.8H328c-4.4,0-8,3.6-8,8s3.6,8,8,8h112c4.4,0,8-3.6,8-8S444.4,167.8,440,167.8z"/>
			<path class="st0" d="M456,255.8H280c-4.4,0-8,3.6-8,8s3.6,8,8,8h176c4.4,0,8-3.6,8-8S460.4,255.8,456,255.8z"/>
			<path class="st0" d="M440,207.8h-88c-4.4,0-8,3.6-8,8s3.6,8,8,8h88c4.4,0,8-3.6,8-8S444.4,207.8,440,207.8z"/>
			<path class="st0" d="M472,183.8h16c4.4,0,8-3.6,8-8s-3.6-8-8-8h-16c-4.4,0-8,3.6-8,8S467.6,183.8,472,183.8z"/>
			<path class="st0" d="M496,255.8h-16c-4.4,0-8,3.6-8,8s3.6,8,8,8h16c4.4,0,8-3.6,8-8S500.4,255.8,496,255.8z"/>
			<path class="st0" d="M504,207.8h-32c-4.4,0-8,3.6-8,8s3.6,8,8,8h32c4.4,0,8-3.6,8-8S508.4,207.8,504,207.8z"/>
		</g>
	</g>
</g>
</svg>
