<?xml version="1.0" encoding="utf-8"?>
<!-- Generator: Adobe Illustrator 21.1.0, SVG Export Plug-In . SVG Version: 6.00 Build 0)  -->
<svg version="1.1" id="Capa_1" xmlns="http://www.w3.org/2000/svg" xmlns:xlink="http://www.w3.org/1999/xlink" x="0px" y="0px"
	 viewBox="0 0 560 526.5" style="enable-background:new 0 0 560 526.5;" xml:space="preserve">
<style type="text/css">
	.st0{fill:#F05123;}
</style>
<title>hogar</title>
<g id="Capa_2">
	<g id="Capa_1-2">
		<path class="st0" d="M467.7,258c-8.8-0.1-16,6.9-16.1,15.7c0,0.2,0,0.3,0,0.5v220.6H337.1v-90.1c0-8.5-7-15.8-15.6-15.8h-82.8
			c-9.1,0-16.4,7.4-16.4,15.8v90.1H108.2V281.5c-0.2-8.8-7.5-15.7-16.2-15.4c-8.4,0.2-15.2,7-15.4,15.4v229.5
			c0,8.6,7,15.5,15.6,15.6h146.7c8.6-0.1,15.5-7,15.6-15.6v-90.1h51.1v90.1c0.1,8.7,7.3,15.7,16,15.6c0,0,0.1,0,0.1,0h146.2
			c8.6-0.1,15.5-7,15.5-15.6V274.1C483.2,265,476.2,258,467.7,258z"/>
		<path class="st0" d="M555.4,270.6L428.1,142.7V55.5c0-8.9-7.3-16.1-16.2-16.1c-0.1,0-0.2,0-0.3,0c-8.7,0.1-15.7,7.3-15.6,16
			c0,0,0,0.1,0,0.1v55.2L291,5c-2.8-3.1-6.7-4.9-10.9-5c-4.3,0-8.5,1.9-11.4,5L4.9,268.8c-6.3,6.3-6.8,16.5,0,22.3
			c5.9,6.8,16,6.3,22.3,0l253-252.4l252.3,254.7c2.6,2.6,6.5,4.1,11.4,4.1c4.2,0,8.2-1.4,11.4-4.1
			C561.5,287.1,561.5,277,555.4,270.6z"/>
	</g>
</g>
</svg>
