<?xml version="1.0" encoding="utf-8"?>
<!-- Generator: Adobe Illustrator 21.1.0, SVG Export Plug-In . SVG Version: 6.00 Build 0)  -->
<svg version="1.1" id="Capa_1" xmlns="http://www.w3.org/2000/svg" xmlns:xlink="http://www.w3.org/1999/xlink" x="0px" y="0px"
	 viewBox="0 0 425.4 517" style="enable-background:new 0 0 425.4 517;" xml:space="preserve">
<style type="text/css">
	.st0{fill:#F05123;}
</style>
<title>perecederos</title>
<g id="Capa_2">
	<g id="Capa_1-2">
		<path class="st0" d="M174.8,235c-11.4-36.2-23.2-73.6-24-146.8h0.5c4.6,0,8.4-3.7,8.4-8.4s-3.7-8.4-8.4-8.4h-9.5V51.1
			c13.7-4.6,21.1-19.5,16.5-33.3C154.7,7.2,144.7,0,133.4,0H62C47.5,0,35.8,11.7,35.8,26.2c0,11.3,7.2,21.3,17.8,24.9v20.4h-9.5
			c-4.6,0-8.4,3.7-8.4,8.4s3.7,8.4,8.4,8.4h0.5C43.8,161.4,32,198.8,20.6,235C10,268.7,0,300.5,0,356.8v134
			C0,505.2,11.8,517,26.2,517h142.9c14.5,0,26.2-11.8,26.2-26.2v-134C195.4,300.5,185.4,268.7,174.8,235z M52.5,26.2
			c0-5.2,4.3-9.5,9.5-9.5c0,0,0,0,0,0h71.5c5.2,0,9.5,4.3,9.5,9.5s-4.3,9.5-9.5,9.5l0,0H62C56.8,35.8,52.5,31.5,52.5,26.2
			C52.5,26.3,52.5,26.3,52.5,26.2z M134.1,88.2c0.1,9.9,0.4,19.2,0.9,27.9h-10.5c-4.6,0-8.4,3.7-8.4,8.4c0,0,0,0,0,0
			c0,10.2-8.2,18.4-18.4,18.4s-18.4-8.2-18.4-18.4l0,0c0-4.6-3.7-8.4-8.4-8.4c0,0,0,0,0,0H60.5c0.5-8.8,0.8-18,0.9-27.9H134.1z
			 M70.3,71.5v-19h54.7v19H70.3z M178.7,490.8c0,5.2-4.3,9.5-9.5,9.5H26.2c-5.2,0-9.5-4.3-9.5-9.5v-134c0-53.7,9.6-84.3,19.8-116.7
			c8.8-27.9,18.5-58.7,22.7-107.2h4.3c4.6,18.9,23.7,30.4,42.6,25.8c12.7-3.1,22.7-13.1,25.8-25.8h4.3
			c4.2,48.5,13.9,79.3,22.7,107.2c10.2,32.4,19.9,63,19.9,116.7V490.8z"/>
		<path class="st0" d="M97.7,339.5c-34.2,0-62,27.8-62,62s27.8,62,62,62s62-27.8,62-62l0,0C159.7,367.2,132,339.5,97.7,339.5z
			 M97.7,446.7c-25,0-45.2-20.2-45.2-45.2c0-25,20.2-45.2,45.2-45.2s45.2,20.2,45.2,45.2l0,0C142.9,426.4,122.7,446.6,97.7,446.7
			L97.7,446.7z"/>
		<path class="st0" d="M425.4,393.8c0-0.5,0-0.9-0.1-1.4c-0.1-0.5-0.2-0.9-0.5-1.3c-2.4-13.5-29.5-34.7-82.6-54.1
			c-42-15.3-79.9-21-94.5-14.3c-2.9,1.2-5.2,3.5-6.4,6.4c-4.2,11.6,15,27.4,42.3,41.6c-19.9,2.6-52.1,9.1-52.1,23.1
			c0,0.1,0,0.2,0,0.3s0,0.1,0,0.1v93.4c0,17,48.8,25.9,97,25.9s97-8.9,97-25.9v-93.4c0,0,0-0.1,0-0.1S425.4,393.8,425.4,393.8z
			 M247.3,331.3c0.6-1.3,1.7-2.3,3.1-2.8c4.6-1.7,9.5-2.4,14.4-2.2c16.5,0,43.2,5,75.1,16.7c53,19.3,81.4,42.6,78.5,50.7
			c-0.6,1.3-1.7,2.3-3.1,2.8c-6.1,2.9-19.6,3-38.1-0.2h-0.1H377c-17.5-3.3-34.6-8.1-51.2-14.3c-11-4-21-8.2-29.8-12.4
			c-0.1,0-0.1-0.1-0.2-0.1C262.3,353.6,245,337.7,247.3,331.3z M331.7,400.2c14.7,0,29.4,0.8,44,2.4c4.9,0.9,9.5,1.5,13.8,2
			c2.5,0.4,4.8,0.9,7.2,1.3c-22.4,5.2-45.3,7.6-68.3,7.2c-2.4,0-4.7,0-7-0.1h-1c-15.3-0.2-30.6-1.6-45.7-4l-2.3-0.4l-1.2-0.2
			c-2.8-0.5-5.5-1.1-8-1.7C285.7,402.1,308.7,400,331.7,400.2L331.7,400.2z M253.1,402.6c-0.5,0.2-0.9,0.4-1.3,0.8
			c-2.5-0.9-4.9-1.9-7.3-3.2c13.4-7.1,43.6-12.3,77.1-12.8l1.9,0.7c5.8,2.1,11.5,4,17.1,5.8c-3-0.1-5.9-0.1-9-0.1
			C300.7,393.8,272.1,397,253.1,402.6L253.1,402.6z M294.2,375.9c4,1.9,8.2,3.7,12.4,5.5c-30.8,1.7-56.1,7.1-67.8,14.6
			c-0.5-0.6-0.9-1.3-1-2c0,0,0-0.1,0-0.1l0,0c0-0.1,0-0.1,0-0.2C238,388.5,255.5,379.6,294.2,375.9L294.2,375.9z M418.9,487.5
			c0,8.1-34.4,19.4-90.5,19.4s-90.5-11.3-90.5-19.4v-83.8l0.2,0.1c0.7,0.5,1.5,1,2.4,1.5l1,0.5c0.7,0.3,1.3,0.7,2,1
			c0.7,0.3,1.3,0.6,2,0.9l1.1,0.5c1.1,0.5,2.3,0.9,3.5,1.3l0,0c10.8,3.5,22,6,33.2,7.2l1.2,0.2c1.6,0.2,3.3,0.4,4.9,0.6l2.4,0.3
			l3.9,0.4l3.4,0.3l3.3,0.2l3.9,0.3l3.2,0.2c1.3,0.1,2.6,0.1,4,0.2l3.9,0.1l3.4,0.1c2.5,0,4.9,0.1,7.4,0.1c2.1,0,4.2,0,6.3-0.1h1.4
			c2,0,4.1-0.1,6.1-0.2h1c1.9-0.1,3.7-0.2,5.6-0.3l1.1-0.1c2-0.1,4-0.2,6-0.4l1.2-0.1c1.9-0.1,3.9-0.3,5.8-0.5h0.3
			c2-0.2,3.9-0.4,5.9-0.6l1.3-0.1c1.9-0.2,3.8-0.5,5.6-0.7l0.7-0.1c1.7-0.2,3.4-0.5,5-0.8l1-0.2c1.8-0.3,3.5-0.6,5.1-0.9l1-0.2
			c1.6-0.3,3.1-0.6,4.6-1l0.5-0.1c1.6-0.4,3.1-0.8,4.6-1.1l1-0.3c1.5-0.4,2.9-0.8,4.3-1.3l0.4-0.1c1.3-0.4,2.5-0.8,3.7-1.3l0.8-0.3
			c1.2-0.5,2.4-0.9,3.5-1.4l0.7-0.3c1-0.5,1.9-0.9,2.8-1.4l0.5-0.3c1-0.5,1.8-1.1,2.6-1.6l0.3-0.2L418.9,487.5z"/>
		<path class="st0" d="M409.8,418.3c-1.6-1.2-3.7-1.6-5.7-1c-25.8,7.9-61.6,8.8-75.8,8.8s-50-0.9-75.8-8.8c-1.9-0.6-4.1-0.2-5.7,1
			c-1.7,1.2-2.6,3.2-2.6,5.2v59.3c0,2.4,1.3,4.6,3.5,5.7c11.2,5.7,41.1,11.9,80.6,11.9s69.5-6.2,80.6-11.9c2.1-1.1,3.5-3.3,3.5-5.7
			v-59.3C412.5,421.4,411.5,419.5,409.8,418.3z M328.4,494c-44.2,0-70.1-7.3-77.6-11.2l-0.1-59.3c26.6,8.2,63.2,9.1,77.7,9.1
			s51-0.9,77.6-9v59.3C398.5,486.7,372.6,494,328.4,494z"/>
		<path class="st0" d="M388.2,439.4c-1-0.6-2.3-0.6-3.3,0l-17.1,10.2c-10-6.6-27.1-10.6-45.9-10.6c-31.3,0-55,10.4-55,24.3
			s23.6,24.3,55,24.3c20.6,0,39.2-4.8,48.4-12.5l14.6,8.8c1.5,0.9,3.5,0.4,4.4-1.1c0.3-0.5,0.5-1.1,0.5-1.7v-38.8
			C389.8,441.1,389.2,440,388.2,439.4z M294.3,477.7c-13-3.5-20.9-9.1-20.9-14.4s7.9-10.9,20.8-14.4l0.8,1.4
			C300.1,458.7,299.8,469.4,294.3,477.7L294.3,477.7z M383.4,475.3l-9.7-5.8c-2.3-1.4-5.3-1.2-7.4,0.5c-8.1,6.7-25.5,11-44.4,11
			c-7,0-14.1-0.6-21-1.9c5.6-9.9,5.6-22-0.1-31.8c7-1.3,14.1-1.9,21.1-1.9c17.3,0,33.5,3.6,42.3,9.5c2.1,1.4,4.8,1.5,7,0.2l12.1-7.3
			L383.4,475.3z"/>
		<path class="st0" d="M288.7,459.4l-0.5-0.4c-0.2-0.1-0.4-0.2-0.6-0.3c-0.2-0.1-0.4-0.2-0.6-0.2c-0.6-0.1-1.3-0.1-1.8,0.2
			c-0.4,0.2-0.8,0.4-1.1,0.7c-1.2,1.3-1.2,3.3,0,4.6c0.3,0.3,0.7,0.5,1.1,0.7c0.4,0.2,0.8,0.3,1.2,0.3c0.2,0,0.4,0,0.6-0.1
			c0.2,0,0.4-0.1,0.6-0.2c0.2-0.1,0.4-0.2,0.6-0.3l0.5-0.4c0.6-0.6,0.9-1.4,0.9-2.3c0-0.4-0.1-0.8-0.3-1.2
			C289.2,460,289,459.7,288.7,459.4z"/>
		<path class="st0" d="M373,390.4c1.7,0.4,3.5-0.7,3.9-2.4s-0.7-3.5-2.4-3.9l0,0c-13.6-3.2-27-7.2-40.1-12
			c-16-5.7-31.4-12.7-46.3-20.9c-1.6-0.9-3.5-0.3-4.4,1.2s-0.3,3.5,1.2,4.4l0,0c15.1,8.4,30.9,15.5,47.2,21.4
			C345.4,383.1,359.1,387.2,373,390.4z"/>
		<path class="st0" d="M289,341.8c30.1,6.4,59.1,16.8,86.4,30.8c1.6,0.8,3.5,0.2,4.3-1.4c0.8-1.6,0.2-3.4-1.3-4.3
			c-27.9-14.4-57.5-24.9-88.2-31.4c-1.8-0.3-3.4,0.8-3.8,2.5C286.1,339.8,287.2,341.5,289,341.8z"/>
	</g>
</g>
</svg>
