<?xml version="1.0" encoding="utf-8"?>
<!-- Generator: Adobe Illustrator 21.1.0, SVG Export Plug-In . SVG Version: 6.00 Build 0)  -->
<svg version="1.1" id="Capa_1" xmlns="http://www.w3.org/2000/svg" xmlns:xlink="http://www.w3.org/1999/xlink" x="0px" y="0px"
	 viewBox="0 0 324.7 547.7" style="enable-background:new 0 0 324.7 547.7;" xml:space="preserve">
<style type="text/css">
	.st0{fill:none;stroke:#F05123;stroke-width:12;stroke-miterlimit:10;}
</style>
<title>refrigeracion</title>
<g id="Capa_2">
	<g id="Capa_1-2">
		<path class="st0" d="M305.6,214.5h-33V433c0,6.3-5.1,11.4-11.4,11.4c-6.3,0-11.4-5.1-11.4-11.4V214.5H19.1
			c-7.2,0-13.1,5.9-13.1,13.1v301c0,7.2,5.9,13.1,13.1,13.1h286.4c7.2,0,13.1-5.9,13.1-13.1v-301
			C318.7,220.4,312.8,214.5,305.6,214.5C305.6,214.5,305.6,214.5,305.6,214.5z"/>
		<path class="st0" d="M305.6,6H19.1C11.9,6,6,11.9,6,19.1v172.2c0,7.2,5.9,13.1,13.1,13.1c0,0,0,0,0,0h230.7V68
			c0-6.3,5.1-11.4,11.4-11.4c6.3,0,11.4,5.1,11.4,11.4v136.4h33c7.2,0,13.1-5.9,13.1-13.1V19.1C318.7,11.9,312.8,6,305.6,6z"/>
	</g>
</g>
</svg>
