<svg xmlns="http://www.w3.org/2000/svg" viewBox="0 0 512 512"><defs><style>.cls-1{fill:#fff;}</style></defs><title>store</title><g id="Capa_2" data-name="Capa 2"><g id="Capa_1-2" data-name="Capa 1"><path class="cls-1" d="M0,208a63.88,63.88,0,0,0,48,61.75V480H16a16,16,0,0,0,0,32H496a16,16,0,0,0,0-32H464V269.75A63.88,63.88,0,0,0,512,208V192H0Zm320,64a64,64,0,0,0,64-64,63.88,63.88,0,0,0,48,61.75V480H192V272a64,64,0,0,0,64-64A64,64,0,0,0,320,272Zm-144-2.25V480H80V269.75A63.88,63.88,0,0,0,128,208,63.88,63.88,0,0,0,176,269.75ZM448,48H64L0,176H512ZM135.19,83.56l-32,64A8.07,8.07,0,0,1,96,152a7.74,7.74,0,0,1-3.56-.84,8,8,0,0,1-3.56-10.72l32-64a8,8,0,0,1,14.31,7.12Zm64,0-32,64A8.07,8.07,0,0,1,160,152a7.74,7.74,0,0,1-3.56-.84,8,8,0,0,1-3.56-10.72l32-64a8,8,0,0,1,14.31,7.12ZM264,144a8,8,0,0,1-16,0V80a8,8,0,0,1,16,0Zm91.88,7A8,8,0,0,1,345,147.84l-35-64a8,8,0,0,1,14.06-7.69l35,64A8,8,0,0,1,355.88,151Zm63.69.16A7.47,7.47,0,0,1,416,152a7.91,7.91,0,0,1-7.12-4.44l-32-64a8,8,0,1,1,14.31-7.12l32,64A8,8,0,0,1,419.56,151.16ZM136,386.44V349.56A15.82,15.82,0,0,1,128,336a16,16,0,0,1,32,0,15.76,15.76,0,0,1-8,13.56v36.88A15.76,15.76,0,0,1,160,400a16,16,0,1,1-24-13.56ZM64,16A16,16,0,0,1,80,0H432a16,16,0,0,1,0,32H80A16,16,0,0,1,64,16ZM280.44,357.66l-11.31-11.31,45.25-45.25,11.31,11.31Zm0,45.25-11.31-11.31,90.5-90.5,11.31,11.31Zm79.19-56.56,11.31,11.31-45.25,45.25-11.31-11.31Z"/></g></g></svg>