<?xml version="1.0" encoding="utf-8"?>
<!-- Generator: Adobe Illustrator 21.1.0, SVG Export Plug-In . SVG Version: 6.00 Build 0)  -->
<svg version="1.1" id="Capa_1" xmlns="http://www.w3.org/2000/svg" xmlns:xlink="http://www.w3.org/1999/xlink" x="0px" y="0px"
	 viewBox="0 0 496.2 478.5" style="enable-background:new 0 0 496.2 478.5;" xml:space="preserve">
<style type="text/css">
	.st0{fill:#F05123;}
</style>
<title>tecnologia</title>
<g id="Capa_2">
	<g id="Capa_1-2">
		<path class="st0" d="M329.8,403.6c-39.6-17.1-49.9-54.1-49.9-54.1h49.9v-50.8H33.3V33.3h399.5v173.2H466V31.3
			c0.1-17.2-13.7-31.2-30.9-31.3c0,0-0.1,0-0.1,0H31.1C13.9,0.1,0,14.1,0,31.3v286.9c-0.1,17.2,13.9,31.2,31.1,31.3c0,0,0,0,0,0H186
			c0,0-27.2,62.6-101.8,62.6v15.6h245.6V403.6z M233,343c-9.6,0-17.4-7.8-17.4-17.5s7.8-17.4,17.5-17.4c9.6,0,17.4,7.8,17.4,17.4
			C250.5,335.2,242.7,343,233,343C233,343,233,343,233,343z"/>
		<path class="st0" d="M479.1,226.5H366.8c-9.4,0-17,7.6-17,17v218c0,9.4,7.6,17,17,17h112.4c9.4,0,17-7.6,17-17v-218
			C496.1,234.1,488.5,226.5,479.1,226.5z M405,238.7h35.9c1.1,0,2.1,0.9,2.1,2.1s-0.9,2.1-2.1,2.1l0,0H405c-1.1,0-2.1-0.9-2.1-2.1
			S403.9,238.7,405,238.7z M423,470c-4.7,0-8.5-3.8-8.5-8.5s3.8-8.5,8.5-8.5c4.7,0,8.5,3.8,8.5,8.5C431.5,466.2,427.7,470,423,470
			C423,470,423,470,423,470z M484.4,447H361.6V253.5h122.7L484.4,447z"/>
	</g>
</g>
</svg>
