<svg xmlns="http://www.w3.org/2000/svg" viewBox="0 0 114.53 23.31"><defs><style>.cls-1{fill:#8fc23f;}.cls-2{fill:#fff;}.cls-3{fill:#f05123;}</style></defs><title>logo</title><g id="Capa_2" data-name="Capa 2"><g id="Layer_1" data-name="Layer 1"><path class="cls-1" d="M4.19,1.28v16.3H0V1.28ZM8.46,9.4H4.64V8.5A6.32,6.32,0,0,1,5,6.11,3.32,3.32,0,0,1,6.44,4.63,5.4,5.4,0,0,1,9.23,4a5.45,5.45,0,0,1,3.11.73A2.85,2.85,0,0,1,13.61,6.5a28.1,28.1,0,0,1,.21,4.38v6.71h-4V16.39a2.64,2.64,0,0,1-1,1.07,2.65,2.65,0,0,1-1.4.36,3.44,3.44,0,0,1-2-.6q-.89-.6-.89-2.62v-1.1a3.22,3.22,0,0,1,.47-2,6.67,6.67,0,0,1,2.35-1.27A6.7,6.7,0,0,0,9.61,9.14,2.81,2.81,0,0,0,9.75,8a3.73,3.73,0,0,0-.16-1.36.54.54,0,0,0-.52-.32q-.41,0-.51.27A5.42,5.42,0,0,0,8.46,8Zm1.29,1.83a3,3,0,0,0-1.13,1.2,4.75,4.75,0,0,0-.16,1.39,4.05,4.05,0,0,0,.14,1.34.53.53,0,0,0,.54.3.5.5,0,0,0,.5-.24A3.83,3.83,0,0,0,9.75,14Zm19-.89H23.13V6.61a6.68,6.68,0,0,0-.18-2,.77.77,0,0,0-.79-.4.82.82,0,0,0-.88.49,7.46,7.46,0,0,0-.19,2.12v10a7,7,0,0,0,.19,2,.79.79,0,0,0,.84.48.78.78,0,0,0,.82-.48,7.81,7.81,0,0,0,.19-2.25v-2.7h5.58v.84a16.51,16.51,0,0,1-.47,4.73,4.83,4.83,0,0,1-2.08,2.44,7.13,7.13,0,0,1-4,1,8.23,8.23,0,0,1-4-.89A4.32,4.32,0,0,1,16,19.57a16.14,16.14,0,0,1-.52-4.73V8.57a27.9,27.9,0,0,1,.16-3.48,4.87,4.87,0,0,1,.95-2.23,5.28,5.28,0,0,1,2.19-1.69A7.9,7.9,0,0,1,22,.55a7.87,7.87,0,0,1,4.07,1,4.57,4.57,0,0,1,2.11,2.38,14.29,14.29,0,0,1,.5,4.43Zm12.88.7v4.31a18.17,18.17,0,0,1-.24,3.48,4.89,4.89,0,0,1-1,2.07,4.61,4.61,0,0,1-2,1.42,8,8,0,0,1-2.82.46,10.06,10.06,0,0,1-3-.39,4.1,4.1,0,0,1-1.92-1.18,4.66,4.66,0,0,1-1-1.91,14.36,14.36,0,0,1-.29-3.36V11.43a11,11,0,0,1,.53-3.83,4.41,4.41,0,0,1,1.91-2.21,6.72,6.72,0,0,1,3.53-.84,8.05,8.05,0,0,1,3.1.54,4.85,4.85,0,0,1,3,3.18A11,11,0,0,1,41.59,11ZM36.23,9.72A5.85,5.85,0,0,0,36.08,8a.6.6,0,0,0-.62-.35.63.63,0,0,0-.64.35,5.38,5.38,0,0,0-.16,1.7v7.94a5.14,5.14,0,0,0,.16,1.62.72.72,0,0,0,1.25,0,4.5,4.5,0,0,0,.15-1.49ZM47.56,4.87l-.09,1.67A4.32,4.32,0,0,1,48.95,5a3.85,3.85,0,0,1,2-.5,3.8,3.8,0,0,1,3.38,2A4.83,4.83,0,0,1,55.82,5a3.65,3.65,0,0,1,1.88-.5A3.7,3.7,0,0,1,60,5.21a2.92,2.92,0,0,1,1.15,1.62A13.67,13.67,0,0,1,61.36,10V22.47h-5.2V11A14.47,14.47,0,0,0,56,8.2a.67.67,0,0,0-.71-.54.7.7,0,0,0-.74.53A13.29,13.29,0,0,0,54.4,11V22.47H49.2V11.29a20.5,20.5,0,0,0-.13-3.1.64.64,0,0,0-.7-.52.8.8,0,0,0-.61.27,1,1,0,0,0-.28.66q0,.39,0,1.66v12.2h-5.2V4.87ZM74.25,14H67.32v3.81a4.23,4.23,0,0,0,.17,1.54.67.67,0,0,0,.66.34.8.8,0,0,0,.82-.46,5,5,0,0,0,.21-1.77V15.12h5.08v1.3A11.65,11.65,0,0,1,74,18.93a5.11,5.11,0,0,1-1,1.87,4.68,4.68,0,0,1-1.92,1.49,7.42,7.42,0,0,1-2.91.5,8.45,8.45,0,0,1-3-.49,4.79,4.79,0,0,1-2-1.35,4.86,4.86,0,0,1-1-1.88,12.15,12.15,0,0,1-.28-3V10.94a8.74,8.74,0,0,1,.62-3.64,4.28,4.28,0,0,1,2-2,7.2,7.2,0,0,1,3.26-.71,7.3,7.3,0,0,1,3.72.86,4.71,4.71,0,0,1,2.06,2.27,10.64,10.64,0,0,1,.59,4Zm-5.37-2.86V9.83a6.49,6.49,0,0,0-.15-1.76.58.58,0,0,0-.6-.4q-.56,0-.69.34a7,7,0,0,0-.13,1.82v1.29ZM80.27,4.87l-.21,2.31a4,4,0,0,1,3.38-2.63v6.19a4.49,4.49,0,0,0-2.16.4,1.67,1.67,0,0,0-.85,1.11,19.87,19.87,0,0,0-.16,3.27v6.95H74.92V4.87Z"/><ellipse class="cls-2" cx="100.16" cy="11.65" rx="14.36" ry="11.65"/><path class="cls-3" d="M100.16.72c-7.44,0-13.48,4.9-13.48,10.94,0,5.29,4.63,9.7,10.79,10.72-.22-3.71,6.11-7.93,7.74-9.22A3.51,3.51,0,0,0,106.73,10c0-.59-.37-.59-.67-.48a1.15,1.15,0,0,1-1.35-.22c-.42-.51-.62-.22-.62-.22.59,1.91,1.66.51,1.91,1s-.37,1.35-.37,1.35S98.57,18,95,18c-3.35,0-3.54-4.95-3.54-4.95a1.76,1.76,0,0,0-.87-1.24c-.76-.39,0-.62,0-.62l11.47-2.42c1.24-.25,1.57-.39,1.57-.65s-.87-.11-.87-.11-12.32,2.25-12.63,2.28a1.05,1.05,0,0,0-.59.39s-.78.87-.76-.06.34-1.15,1.65-1.28S102.8,7,102.8,7a4.18,4.18,0,0,1,3.81-1.84,4.85,4.85,0,0,1,4.12,4.06S110,8.77,110,9s.33,2.71-3.11,6.26c0,0-2.76,2.45-2.76,3.39s.28,3.4,5.75.5l0,0a9.93,9.93,0,0,0,3.75-7.56C113.64,5.61,107.61.72,100.16.72Z"/><circle class="cls-3" cx="104.71" cy="6.98" r="0.59"/></g></g></svg>